<svg xmlns="http://www.w3.org/2000/svg" viewBox="0 0 64 64" fill="none">
  <defs>
    <linearGradient id="panel" x1="8" y1="6" x2="58" y2="58" gradientUnits="userSpaceOnUse">
      <stop stop-color="#12202D"/>
      <stop offset="1" stop-color="#08111B"/>
    </linearGradient>
    <radialGradient id="glowGold" cx="0" cy="0" r="1" gradientUnits="userSpaceOnUse" gradientTransform="translate(19 17) rotate(49.086) scale(18.8261 16.6046)">
      <stop stop-color="#F0B54A"/>
      <stop offset="1" stop-color="#F0B54A" stop-opacity="0"/>
    </radialGradient>
    <radialGradient id="glowCyan" cx="0" cy="0" r="1" gradientUnits="userSpaceOnUse" gradientTransform="translate(47 45) rotate(180) scale(18 14)">
      <stop stop-color="#7AE4FF" stop-opacity=".36"/>
      <stop offset="1" stop-color="#7AE4FF" stop-opacity="0"/>
    </radialGradient>
    <linearGradient id="orbit" x1="16" y1="24" x2="50" y2="38" gradientUnits="userSpaceOnUse">
      <stop stop-color="#F6C66A"/>
      <stop offset="1" stop-color="#86EDFF"/>
    </linearGradient>
  </defs>

  <rect x="1" y="1" width="62" height="62" rx="19" fill="url(#panel)"/>
  <rect x="1" y="1" width="62" height="62" rx="19" stroke="rgba(255,255,255,.1)"/>
  <rect x="8.5" y="8.5" width="47" height="47" rx="14.5" fill="rgba(255,255,255,.02)" stroke="rgba(255,255,255,.06)"/>

  <circle cx="19" cy="17" r="16" fill="url(#glowGold)"/>
  <circle cx="47" cy="45" r="14" fill="url(#glowCyan)"/>

  <circle cx="31.5" cy="33" r="11.25" fill="#0B141E" stroke="rgba(255,255,255,.08)"/>
  <circle cx="31.5" cy="33" r="6.25" stroke="#F0B54A" stroke-opacity=".82" stroke-width="1.8"/>
  <circle cx="31.5" cy="33" r="2.25" fill="#F0B54A"/>

  <path d="M14 37.7C19.4 28 31.8 23 45.8 25.9" stroke="url(#orbit)" stroke-width="2.2" stroke-linecap="round"/>
  <path d="M19.2 45.2C26.6 48 35 47.7 42.1 43.9" stroke="#7AE4FF" stroke-opacity=".72" stroke-width="1.6" stroke-linecap="round"/>
  <path d="M39.8 17.5L48.2 12.8" stroke="rgba(255,255,255,.78)" stroke-width="1.8" stroke-linecap="round"/>
  <path d="M41.1 19.9L49.8 15.1" stroke="#F0B54A" stroke-opacity=".78" stroke-width="1.2" stroke-linecap="round"/>
</svg>
